:FULLY-SPECIFIED
:FORCE-ALL-JOINTS-BE-3DOF
:DEGREES
1631
root -15.6116 14.5067 19.0397 -13.4764 -68.5672 13.2258
lfemur 12.4467 -13.5829 -11.9315
ltibia 30.4579 -0 0
lfoot -22.2832 30.1433 0.0610601
ltoes -43.7457 0 0
rfemur -52.0781 -14.5322 7.37043
rtibia 62.4711 -0 0
rfoot -8.57161 12.5396 -0.0682022
rtoes 3.45946 -0 0
lowerback 12.6301 4.43586 -7.64069
upperback -0.486475 4.67386 -0.598362
thorax -8.22731 2.55687 2.67619
lowerneck 1.77931 -13.962 -13.6372
upperneck 3.14613 -19.2683 11.6002
head 2.95858 -9.65155 4.80911
lclavicle -2.25766e-14 -1.90212e-14 0
lhumerus -78.1024 -15.1413 105.704
lradius 108.561 -0 0
lwrist 58.8197 0 0
lhand -9.41757 50.8883 0.174147
lfingers 7.12502 -0 0
lthumb 16.5055 79.674 -0.0107186
rclavicle -2.25766e-14 -1.90212e-14 0
rhumerus 53.3515 -9.11698 -55.9759
rradius 9.45125 -0 0
rwrist 27.3409 0 0
rhand -21.2507 -37.7031 -0.30618
rfingers 7.12502 -0 0
rthumb 5.15861 -67.8679 -0.385816
1632
root -15.5667 14.5139 19.0641 -13.6102 -68.7696 13.4717
lfemur 12.4447 -13.4729 -11.9991
ltibia 30.2415 -0 0
lfoot -22.1905 30.1366 0.056019
ltoes -43.708 0 0
rfemur -52.1742 -14.5632 7.42377
rtibia 62.7944 -0 0
rfoot -8.78885 12.3845 -0.0597058
rtoes 3.3991 -0 0
lowerback 12.6383 4.40202 -7.64252
upperback -0.505892 4.63012 -0.568136
thorax -8.24853 2.53787 2.72111
lowerneck 1.77231 -13.9041 -13.5813
upperneck 3.14132 -19.1854 11.5303
head 2.94518 -9.61114 4.78799
lclavicle -2.25766e-14 -1.90212e-14 0
lhumerus -77.6937 -15.3266 105.638
lradius 108.245 -0 0
lwrist 58.5833 0 0
lhand -10.3889 50.5979 0.172609
lfingers 7.12502 -0 0
lthumb 15.5739 79.4994 -0.000118875
rclavicle -2.25766e-14 -1.90212e-14 0
rhumerus 52.9249 -8.77599 -56.0339
rradius 10.1133 -0 0
rwrist 27.1186 0 0
rhand -20.967 -37.4291 -0.277715
rfingers 7.12502 -0 0
rthumb 5.43028 -67.5676 -0.351205
1633
root -15.519 14.521 19.0911 -13.7635 -68.9864 13.7354
lfemur 12.4206 -13.3477 -12.066
ltibia 30.0417 -0 0
lfoot -22.0965 30.1207 0.0506643
ltoes -43.6692 0 0
rfemur -52.2698 -14.5945 7.4816
rtibia 63.1313 -0 0
rfoot -9.00449 12.2161 -0.05141
rtoes 3.33245 -0 0
lowerback 12.6494 4.36557 -7.64439
upperback -0.525099 4.58277 -0.536434
thorax -8.2706 2.51718 2.76854
lowerneck 1.76043 -13.8404 -13.5202
upperneck 3.13784 -19.0937 11.4532
head 2.93157 -9.56636 4.76443
lclavicle -2.25766e-14 -1.90212e-14 0
lhumerus -77.2446 -15.5214 105.563
lradius 107.9 -0 0
lwrist 58.3174 0 0
lhand -11.3508 50.302 0.167319
lfingers 7.12502 -0 0
lthumb 14.6512 79.3177 0.00853013
rclavicle -2.25766e-14 -1.90212e-14 0
rhumerus 52.4514 -8.40147 -56.0891
rradius 10.8388 -0 0
rwrist 26.8527 0 0
rhand -20.6671 -37.1513 -0.248401
rfingers 7.12502 -0 0
rthumb 5.71753 -67.2614 -0.315277
1634
root -15.4688 14.5278 19.121 -13.9374 -69.2174 14.0177
lfemur 12.3738 -13.2071 -12.1323
ltibia 29.8595 -0 0
lfoot -22.0012 30.0953 0.0450229
ltoes -43.6292 0 0
rfemur -52.3647 -14.6259 7.54393
rtibia 63.4814 -0 0
rfoot -9.21795 12.0344 -0.0433898
rtoes 3.25952 -0 0
lowerback 12.6632 4.32651 -7.64629
upperback -0.54405 4.53182 -0.503291
thorax -8.29348 2.49482 2.81846
lowerneck 1.74359 -13.7708 -13.4538
upperneck 3.13573 -18.9933 11.369
head 2.91778 -9.51717 4.7384
lclavicle -2.25766e-14 -1.90212e-14 0
lhumerus -76.7551 -15.7255 105.476
lradius 107.528 -0 0
lwrist 58.022 0 0
lhand -12.3006 50.0012 0.158277
lfingers 7.12502 -0 0
lthumb 13.74 79.1292 0.0151146
rclavicle -2.25766e-14 -1.90212e-14 0
rhumerus 51.9307 -7.99335 -56.1422
rradius 11.6278 -0 0
rwrist 26.5428 0 0
rhand -20.3511 -36.8703 -0.21839
rfingers 7.12502 -0 0
rthumb 6.02015 -66.9499 -0.278204
1635
root -15.4163 14.5344 19.1537 -14.133 -69.4626 14.3194
lfemur 12.3036 -13.0512 -12.1979
ltibia 29.6958 -0 0
lfoot -21.9049 30.0601 0.0391232
ltoes -43.588 0 0
rfemur -52.4587 -14.6574 7.61073
rtibia 63.8442 -0 0
rfoot -9.42868 11.8396 -0.0357146
rtoes 3.18027 -0 0
lowerback 12.68 4.28485 -7.64823
upperback -0.562695 4.47727 -0.468738
thorax -8.31716 2.47077 2.87082
lowerneck 1.72169 -13.6954 -13.3822
upperneck 3.13499 -18.8841 11.2776
head 2.90383 -9.46358 4.70989
lclavicle -2.25766e-14 -1.90212e-14 0
lhumerus -76.2248 -15.9384 105.379
lradius 107.127 -0 0
lwrist 57.6968 0 0
lhand -13.2357 49.696 0.145527
lfingers 7.12502 -0 0
lthumb 12.8427 78.934 0.0195488
rclavicle -2.25766e-14 -1.90212e-14 0
rhumerus 51.3629 -7.5516 -56.1937
rradius 12.4802 -0 0
rwrist 26.1882 0 0
rhand -20.0193 -36.5867 -0.187825
rfingers 7.12502 -0 0
rthumb 6.3379 -66.6335 -0.240153
